HIERARCHY
ROOT SpineBase
{
  OFFSET 0.000000 0.000000 0.000000
  CHANNELS 6 Xposition Yposition Zposition Zrotation Xrotation Yrotation
  JOINT SpineMid
  {
    OFFSET -0.000000 31.460536 0.000000
    CHANNELS 3 Zrotation Xrotation Yrotation
    JOINT SpineShoulder
    {
      OFFSET -0.179613 23.585178 -0.368948
      CHANNELS 3 Zrotation Xrotation Yrotation
      JOINT Neck
      {
        OFFSET -0.082678 7.863634 -0.354903
        CHANNELS 3 Zrotation Xrotation Yrotation
        JOINT Head
        {
          OFFSET 1.209973 10.951624 4.566740
          CHANNELS 3 Zrotation Xrotation Yrotation
          End Site
          {
            OFFSET 0 0 0
          }
        }
      }
      JOINT ShoulderLeft
      {
        OFFSET 0.429879 -3.826062 -12.883705
        CHANNELS 3 Zrotation Xrotation Yrotation
        JOINT ElbowLeft
        {
          OFFSET 8.943583 -17.579691 -5.730055
          CHANNELS 3 Zrotation Xrotation Yrotation
          JOINT WristLeft
          {
            OFFSET 6.874113 -18.619427 1.719016
            CHANNELS 3 Zrotation Xrotation Yrotation
            JOINT HandLeft
            {
              OFFSET 1.816095 -6.748551 0.773821
              CHANNELS 3 Zrotation Xrotation Yrotation
              JOINT HandTipLeft
              {
                OFFSET 2.841241 -5.617074 1.095039
                CHANNELS 3 Zrotation Xrotation Yrotation
                End Site
                {
                  OFFSET 0 0 0
                }
              }
              JOINT ThumbLeft
              {
                OFFSET -2.741816 0.526458 -0.377892
                CHANNELS 3 Zrotation Xrotation Yrotation
                End Site
                {
                  OFFSET 0 0 0
                }
              }
            }
          }
        }
      }
      JOINT ShoulderRight
      {
        OFFSET 6.746744 -6.955044 -17.849661
        CHANNELS 3 Zrotation Xrotation Yrotation
        JOINT ElbowRight
        {
          OFFSET 4.577089 -19.570661 -0.918795
          CHANNELS 3 Zrotation Xrotation Yrotation
          JOINT WristRight
          {
            OFFSET 3.808428 -19.185146 1.877644
            CHANNELS 3 Zrotation Xrotation Yrotation
            JOINT HandRight
            {
              OFFSET 3.184449 -3.938405 1.942923
              CHANNELS 3 Zrotation Xrotation Yrotation
              JOINT HandTipRight
              {
                OFFSET 1.280828 -4.822491 -0.242247
                CHANNELS 3 Zrotation Xrotation Yrotation
                End Site
                {
                  OFFSET 0 0 0
                }
              }
              JOINT ThumbRight
              {
                OFFSET 1.100134 2.030022 -2.701367
                CHANNELS 3 Zrotation Xrotation Yrotation
                End Site
                {
                  OFFSET 0 0 0
                }
              }
            }
          }
        }
      }
    }
  }
  JOINT HipLeft
  {
    OFFSET -4.385398 2.019882 -3.996471
    CHANNELS 3 Zrotation Xrotation Yrotation
    JOINT KneeLeft
    {
      OFFSET 15.951707 -25.951692 -8.102447
      CHANNELS 3 Zrotation Xrotation Yrotation
      JOINT AnkleLeft
      {
        OFFSET 0.253323 -36.193882 -2.954083
        CHANNELS 3 Zrotation Xrotation Yrotation
        JOINT FootLeft
        {
          OFFSET -2.844712 -3.784481 -7.169475
          CHANNELS 3 Zrotation Xrotation Yrotation
          End Site
          {
            OFFSET 0 0 0
          }
        }
      }
    }
  }
  JOINT HipRight
  {
    OFFSET 4.486609 1.085987 -2.165315
    CHANNELS 3 Zrotation Xrotation Yrotation
    JOINT KneeRight
    {
      OFFSET -2.034524 -28.158524 7.607986
      CHANNELS 3 Zrotation Xrotation Yrotation
      JOINT AnkleRight
      {
        OFFSET 3.003549 -40.185497 6.003235
        CHANNELS 3 Zrotation Xrotation Yrotation
        JOINT FootRight
        {
          OFFSET -5.700011 -3.536185 -13.183173
          CHANNELS 3 Zrotation Xrotation Yrotation
          End Site
          {
            OFFSET 0 0 0
          }
        }
      }
    }
  }
}
MOTION
Frames: 13
Frame Time: 0.033333
-6.488515 70.889867 253.854753 0.834224 2.272068 -27.808421 -0.750419 -2.401764 27.742634 -0.430165 0.005050 -0.047741 0.039016 -0.770960 0.637038 0.000000 0.000000 0.000000 -0.769124 0.983347 1.536062 0.353620 2.544246 -0.087594 1.371172 -7.765704 -2.337080 -4.023052 4.586247 0.987142 0.000000 0.000000 0.000000 0.000000 0.000000 0.000000 0.323656 0.779193 0.415262 -0.088095 -3.974987 -1.034249 -7.086019 12.514616 6.324193 5.479118 -19.692177 -6.827440 0.000000 0.000000 0.000000 0.000000 0.000000 0.000000 3.571845 -2.687430 26.017815 -8.076979 1.592562 2.549041 -4.331190 5.074115 12.467382 0.000000 0.000000 0.000000 1.513600 -1.511701 28.219756 -3.935139 4.512172 -0.310954 -125.588042 55.107195 101.388540 0.000000 0.000000 0.000000
-5.964056 71.020875 253.611281 1.478156 2.858065 -30.332252 -0.840142 -2.647349 30.247032 -0.252227 0.173902 -0.024810 -0.073054 -1.947145 0.475231 0.000000 0.000000 0.000000 -1.536741 0.083788 1.432621 0.603329 2.863715 -0.001697 1.563140 -7.008216 -2.097727 -3.782911 4.711557 1.264671 0.000000 0.000000 0.000000 0.000000 0.000000 0.000000 -0.107918 -0.416189 0.241751 -0.187012 -3.448300 -0.900320 -7.856757 12.459581 6.000550 5.549422 -16.536265 -5.590587 0.000000 0.000000 0.000000 0.000000 0.000000 0.000000 3.991964 -3.929007 28.077207 -8.986957 2.325288 3.258668 -4.191875 4.051581 13.966007 0.000000 0.000000 0.000000 1.558636 -2.557425 30.793854 -3.645373 5.407245 -0.247294 -99.007195 46.031156 84.820640 0.000000 0.000000 0.000000
-5.522866 71.223047 253.538395 2.222954 3.284461 -32.039394 -0.660581 -2.548644 31.957416 -0.041476 0.169137 0.012425 -1.063637 -3.099510 0.427310 0.000000 0.000000 0.000000 -2.231424 -0.149109 1.340463 0.557140 2.976585 0.170057 2.901459 -5.976094 -1.537648 -4.387966 5.873272 2.155558 0.000000 0.000000 0.000000 0.000000 0.000000 0.000000 -0.047946 0.281781 0.408313 -2.288941 -5.454836 -1.478160 -5.796219 16.593617 10.169705 5.161165 -19.016677 -8.715800 0.000000 0.000000 0.000000 0.000000 0.000000 0.000000 4.480671 -4.770209 29.338976 -10.015806 3.027206 3.932977 -3.784133 3.644615 14.028586 0.000000 0.000000 0.000000 2.150740 -3.114547 32.794653 -4.468087 6.025621 -0.461472 -71.804876 34.554405 69.533711 0.000000 0.000000 0.000000
-5.297599 71.768719 253.593932 2.797925 3.670026 -37.536944 -0.118664 -2.270857 37.475307 0.024579 0.071892 0.046017 -2.156103 -4.029265 0.413871 0.000000 0.000000 0.000000 -4.269937 -1.691228 0.924776 0.475339 3.886637 0.296728 5.567397 -4.081345 -0.596175 -5.985106 4.351655 1.453941 0.000000 0.000000 0.000000 0.000000 0.000000 0.000000 1.087983 1.893448 0.692109 -4.587482 -7.276619 -1.965928 -6.613416 19.358049 12.996414 5.232174 -21.425075 -10.759238 0.000000 0.000000 0.000000 0.000000 0.000000 0.000000 5.469184 -5.630865 34.280105 -10.182809 4.162565 4.737843 -3.503302 4.058548 12.767061 0.000000 0.000000 0.000000 3.339226 -2.315244 38.755505 -6.235082 5.660224 -0.926683 -27.602953 9.371782 45.577730 0.000000 0.000000 0.000000
-5.295059 71.830909 254.165046 3.364819 3.327813 -35.539504 0.224901 -1.423651 35.521790 0.138174 -0.186567 0.097573 -1.502858 -4.792672 -0.363219 0.000000 0.000000 0.000000 -4.004907 -0.571569 0.801955 -0.085899 4.026034 0.871722 6.032890 -4.094381 -0.478748 -6.495706 5.278163 2.116515 0.000000 0.000000 0.000000 0.000000 0.000000 0.000000 2.791253 4.001014 0.792730 -7.019649 -7.726881 -2.047969 -7.959418 19.846636 14.322982 5.364372 -22.918502 -12.004167 0.000000 0.000000 0.000000 0.000000 0.000000 0.000000 5.853685 -4.548134 31.987402 -11.598385 4.398555 5.007770 -3.265394 4.168808 11.041748 0.000000 0.000000 0.000000 4.010558 -0.997362 37.275744 -8.600804 5.081429 -1.543086 21.772836 -37.957286 19.889213 0.000000 0.000000 0.000000
-5.109186 71.642008 255.035267 4.564200 2.543000 -28.007144 0.313897 -0.748526 28.021890 0.447758 -0.595657 0.183937 -0.108359 -5.186201 -1.619567 0.000000 0.000000 0.000000 -2.162452 2.693766 0.702482 -0.865314 3.247397 1.669430 2.952122 -5.302587 -1.287091 -4.332805 11.219981 5.622552 0.000000 0.000000 0.000000 0.000000 0.000000 0.000000 4.256217 6.224722 0.585315 -9.345014 -7.168432 -1.866671 -11.648092 19.471988 14.494427 12.221882 -23.985670 -9.816904 0.000000 0.000000 0.000000 0.000000 0.000000 0.000000 5.947362 -2.546125 24.252155 -14.963196 3.716517 5.033124 -2.137410 4.157440 8.945095 0.000000 0.000000 0.000000 3.630061 -0.680548 30.091951 -10.607094 4.561215 -2.045019 25.448225 -44.819853 3.255329 0.000000 0.000000 0.000000
-4.938925 71.415716 256.150568 5.932313 1.413345 -15.208125 0.471302 -0.235025 15.265988 0.798787 -1.010883 0.285490 1.860153 -5.086766 -3.210559 0.000000 0.000000 0.000000 1.063180 7.620954 0.345869 -1.841946 1.622987 2.538940 0.532969 -6.359260 -1.915441 -4.571611 16.557133 8.426894 0.000000 0.000000 0.000000 0.000000 0.000000 0.000000 5.387884 9.096916 0.226838 -9.080601 -7.231986 -1.338412 -18.730865 18.968391 13.377298 20.555961 -24.488114 -6.147802 0.000000 0.000000 0.000000 0.000000 0.000000 0.000000 6.934011 -0.064411 11.339827 -19.306377 2.347937 4.601715 -0.759108 3.926416 6.906130 0.000000 0.000000 0.000000 2.682590 -0.517494 17.506802 -12.024994 4.213950 -2.393823 20.922424 -38.541730 -5.838076 0.000000 0.000000 0.000000
-4.224856 71.069219 256.842128 8.173394 0.785173 -0.726053 0.312603 -0.419038 0.839028 1.005031 -1.198108 0.386652 3.972463 -5.746163 -4.868805 0.000000 0.000000 0.000000 5.250195 12.872838 -0.731902 -2.838915 -0.433552 3.631662 -1.980796 -10.540010 -3.045881 -3.646235 22.750874 10.614985 0.000000 0.000000 0.000000 0.000000 0.000000 0.000000 6.227122 10.589012 -0.377552 -8.912168 -5.825474 -0.532272 -20.704122 14.785232 9.204784 20.301330 -19.470708 -4.458341 0.000000 0.000000 0.000000 0.000000 0.000000 0.000000 8.626655 0.799187 -3.365735 -24.655386 0.659250 4.124764 1.587211 4.050395 4.629370 0.000000 0.000000 0.000000 -0.260688 -1.886601 3.017602 -12.227175 5.810626 -2.209184 18.346322 -32.296289 -10.050555 0.000000 0.000000 0.000000
-3.156232 70.337774 257.320370 10.730663 0.219064 9.427817 -0.108840 -0.858307 -9.204162 1.153689 -1.302909 0.483600 5.651086 -5.855918 -6.539169 0.000000 0.000000 0.000000 12.600296 21.212904 -3.055825 -4.576388 -3.830723 4.948607 -5.399732 -15.726484 -4.336906 -3.522811 25.307615 10.546257 0.000000 0.000000 0.000000 0.000000 0.000000 0.000000 6.648077 11.221421 -1.140261 -7.833982 -4.354480 0.445693 -26.446836 14.123895 7.206105 31.725096 -20.926933 -0.404130 0.000000 0.000000 0.000000 0.000000 0.000000 0.000000 11.110147 -0.291343 -14.672826 -31.572186 0.845792 5.021030 4.640575 3.088556 2.352955 0.000000 0.000000 0.000000 -5.118282 -2.791593 -7.350006 -11.710561 8.794440 -1.583386 15.210978 -21.159334 -14.218079 0.000000 0.000000 0.000000
-1.841856 69.514873 257.783354 13.369101 -0.565657 15.142050 -0.697881 -1.073757 -14.747752 1.089551 -1.272983 0.553447 6.602319 -5.597337 -7.937915 0.000000 0.000000 0.000000 15.857840 24.961237 -5.337262 -4.523620 -5.730814 6.087189 -5.549019 -21.081199 -4.124804 -4.024806 28.758055 9.958058 0.000000 0.000000 0.000000 0.000000 0.000000 0.000000 6.202515 10.579862 -1.805366 -6.129885 -2.185121 1.418761 -28.608789 10.591659 3.051416 33.260703 -15.418784 1.138823 0.000000 0.000000 0.000000 0.000000 0.000000 0.000000 10.956815 -0.294906 -20.964989 -35.069822 1.175408 5.288148 6.821283 2.173296 0.573841 0.000000 0.000000 0.000000 -10.722504 -1.418981 -13.435727 -9.450398 10.357989 -0.808013 15.427676 -20.820898 -14.095597 0.000000 0.000000 0.000000
-0.919377 68.787219 257.688925 15.284440 -1.191052 21.198924 -1.287558 -1.116186 -20.634979 0.858915 -1.156684 0.581609 7.163968 -5.484588 -8.783477 0.000000 0.000000 0.000000 15.701613 24.643815 -6.410114 -3.274766 -6.222113 6.942467 -5.093137 -25.110848 -3.530079 -3.538149 30.640521 8.762390 0.000000 0.000000 0.000000 0.000000 0.000000 0.000000 5.974108 8.454277 -2.311509 -3.835864 -0.545698 2.273839 -31.571100 11.225323 2.812376 34.881710 -17.759135 1.307898 0.000000 0.000000 0.000000 0.000000 0.000000 0.000000 9.875621 -0.284428 -27.200299 -36.671936 1.749239 5.405544 8.264482 1.105554 -0.053619 0.000000 0.000000 0.000000 -15.229041 0.848520 -19.549092 -6.234897 12.028511 -0.072661 15.094627 -24.936060 -1.449433 0.000000 0.000000 0.000000
-0.235990 68.099023 257.126448 16.642420 -1.629184 25.392253 -1.619592 -1.046878 -24.694855 0.733192 -1.052525 0.603739 7.558637 -5.450836 -9.433904 0.000000 0.000000 0.000000 11.854500 20.598046 -6.268328 -1.631448 -4.589007 7.298095 -5.477685 -23.289092 -3.431973 0.831095 28.775346 7.342163 0.000000 0.000000 0.000000 0.000000 0.000000 0.000000 5.952418 4.991790 -2.729662 -2.011611 0.036927 2.894759 -32.748101 12.080739 3.033059 33.086094 -20.455803 0.506907 0.000000 0.000000 0.000000 0.000000 0.000000 0.000000 7.933637 0.340053 -31.244938 -36.399522 2.107884 5.367564 7.222462 1.806950 2.028190 0.000000 0.000000 0.000000 -18.461672 3.084620 -23.595124 -2.938361 13.882017 0.525985 10.304596 -22.143061 10.188812 0.000000 0.000000 0.000000
0.173293 67.308307 256.218401 17.413362 -1.900807 26.535071 -1.624709 -1.113806 -25.750296 0.416709 -0.929292 0.608627 6.484916 -4.813804 -9.354057 0.000000 0.000000 0.000000 4.078574 12.048435 -5.581071 1.149866 -0.591227 7.068902 -3.690733 -17.681924 -2.495887 6.135325 24.620483 5.900395 0.000000 0.000000 0.000000 0.000000 0.000000 0.000000 7.238347 2.427016 -3.079087 -1.976528 -2.176390 3.278800 -31.714176 13.264050 3.748111 26.141402 -21.813320 -1.423313 0.000000 0.000000 0.000000 0.000000 0.000000 0.000000 5.085138 1.079571 -32.147431 -34.847417 2.796981 5.735225 9.565667 -0.661259 0.848313 0.000000 0.000000 0.000000 -21.369760 3.032836 -24.584977 1.574417 18.894945 0.974997 5.103235 -22.041617 10.444826 0.000000 0.000000 0.000000
